<?xml version="1.0" encoding="utf-8"?>
<svg version="1.0" xmlns="http://www.w3.org/2000/svg" width="626.000000pt" height="626.000000pt" preserveAspectRatio="xMidYMid meet" viewBox="30.372 34.052 581.731 552.475">
  <g transform="translate(0.000000,626.000000) scale(0.100000,-0.100000)" fill="#000000" stroke="none">
    <path d="M2900 5800 c-1119 -108 -2027 -941 -2230 -2047 -97 -527 -11 -1106 236 -1584 l45 -86 72 15 c69 14 76 18 163 97 l90 83 -53 109 c-137 283 -216 637 -212 953 9 658 325 1276 855 1669 281 208 596 340 954 397 148 24 467 24 615 0 470 -75 866 -277 1192 -608 124 -125 185 -201 275 -338 316 -483 417 -1083 278 -1657 -38 -159 -86 -286 -171 -453 -37 -74 -67 -136 -65 -137 1 -1 56 -14 121 -27 66 -14 151 -34 188 -45 l68 -19 15 23 c26 39 111 238 148 345 45 128 80 264 107 417 30 167 37 518 15 699 -67 550 -304 1044 -691 1443 -394 406 -881 653 -1450 737 -125 18 -438 26 -565 14z" style="fill: rgb(47, 89, 211);"/>
    <path d="M3020 5121 c0 -115 4 -199 11 -214 24 -54 114 -75 161 -37 44 34 49 62 46 255 l-3 180 -107 3 -108 3 0 -190z" style="fill: rgb(47, 89, 211);"/>
    <path d="M2711 5263 c-275 -59 -538 -176 -754 -336 l-68 -50 134 -136 c152 -154 173 -190 165 -285 -10 -118 -106 -206 -224 -206 -87 0 -118 20 -265 166 l-136 136 -30 -39 c-104 -131 -233 -376 -297 -560 -33 -98 -81 -298 -88 -373 l-3 -35 205 -5 c192 -5 207 -7 242 -28 107 -66 146 -184 97 -292 -25 -56 -53 -86 -104 -113 -36 -20 -58 -22 -243 -25 -201 -3 -202 -4 -197 -25 2 -12 12 -62 20 -112 30 -167 98 -373 175 -524 16 -34 32 -61 34 -61 3 0 42 28 88 63 368 277 815 447 1247 473 l108 7 286 311 c158 171 299 325 314 341 16 17 126 137 246 267 120 130 227 240 238 243 24 8 64 -16 71 -42 3 -10 -82 -295 -188 -633 -106 -338 -189 -618 -186 -621 4 -4 50 -24 102 -44 224 -89 484 -236 705 -400 l70 -52 145 -17 c80 -10 155 -20 166 -22 19 -5 30 8 78 93 122 216 202 450 241 711 l7 42 -185 0 c-113 0 -197 4 -218 12 -120 40 -190 167 -155 281 20 68 60 115 120 143 48 22 62 24 244 24 l193 0 -6 48 c-13 96 -58 277 -92 376 -63 183 -194 425 -306 568 -13 16 -25 7 -138 -107 -142 -144 -191 -175 -278 -175 -72 1 -127 26 -173 80 -67 77 -74 188 -18 272 16 24 66 78 110 119 45 40 97 93 117 117 41 50 49 37 -82 126 -166 112 -356 203 -547 261 -92 27 -272 65 -313 65 l-25 0 0 -173 c0 -121 -4 -188 -14 -221 -50 -167 -258 -222 -380 -100 -59 59 -66 90 -66 302 l0 192 -37 -1 c-21 0 -89 -12 -152 -26z" style="fill: rgb(47, 89, 211);"/>
    <path d="M1717 4722 l-77 -78 138 -137 c136 -135 139 -137 183 -137 69 1 109 43 109 116 0 35 -10 48 -137 176 l-138 138 -78 -78z" style="fill: rgb(47, 89, 211);"/>
    <path d="M4323 4667 c-72 -73 -133 -143 -137 -155 -23 -71 33 -142 111 -142 45 0 47 2 181 134 l136 133 -38 46 c-20 25 -57 62 -80 81 l-43 35 -130 -132z" style="fill: rgb(47, 89, 211);"/>
    <path d="M3375 3333 c-214 -233 -391 -428 -393 -433 -2 -6 16 -10 40 -10 58 0 210 -25 341 -56 60 -14 110 -24 113 -22 7 7 294 932 292 939 -2 3 -178 -185 -393 -418z" style="fill: rgb(47, 89, 211);"/>
    <path d="M1130 3310 l0 -110 188 0 c169 0 190 2 220 20 62 38 70 114 18 166 l-34 34 -196 0 -196 0 0 -110z" style="fill: rgb(47, 89, 211);"/>
    <path d="M4723 3410 c-49 -20 -73 -91 -48 -145 29 -60 50 -65 260 -65 l185 0 0 110 0 110 -187 -1 c-104 0 -198 -4 -210 -9z" style="fill: rgb(47, 89, 211);"/>
    <path d="M2645 2769 c-491 -47 -942 -267 -1402 -684 -82 -75 -98 -85 -150 -95 -32 -7 -101 -22 -153 -34 l-95 -21 -16 -61 c-51 -189 -163 -316 -321 -362 l-58 -17 0 -172 0 -171 91 -86 92 -86 56 0 57 0 18 70 c29 114 71 186 156 271 126 126 256 175 435 167 272 -14 487 -204 540 -479 l5 -27 582 -6 c321 -4 873 -6 1227 -4 l644 3 13 60 c42 209 212 386 421 440 74 20 209 19 286 -1 210 -54 378 -229 421 -439 l13 -60 101 -3 c77 -2 109 1 132 13 54 28 60 54 60 263 l0 189 -37 7 c-21 3 -54 6 -73 6 -43 0 -139 24 -189 47 -153 70 -201 214 -131 388 16 42 30 78 30 80 0 6 -154 54 -255 79 -128 32 -353 71 -525 91 -197 23 -192 22 -253 69 -538 418 -1151 619 -1722 565z m522 -138 c219 -41 465 -129 679 -241 142 -74 340 -199 378 -238 68 -72 44 -192 -47 -232 -34 -15 -90 -21 -297 -31 -392 -18 -666 4 -967 80 -389 98 -656 93 -1137 -21 -154 -36 -193 -34 -242 13 -19 18 -36 40 -39 48 -24 83 -2 139 81 203 164 126 408 262 597 332 109 41 305 91 412 105 121 17 454 6 582 -18z m1803 -811 c43 -43 12 -100 -53 -100 -114 0 -293 -51 -392 -111 -31 -18 -87 -59 -126 -91 -39 -32 -76 -58 -83 -58 -26 0 -56 32 -56 59 0 67 216 220 390 276 61 20 193 42 258 44 30 1 48 -5 62 -19z m-1784 -124 c19 -26 18 -55 -3 -78 -14 -15 -32 -18 -134 -18 -110 0 -119 1 -133 22 -23 32 -20 54 11 78 25 20 38 21 136 18 94 -3 111 -6 123 -22z m-1201 -107 c68 -65 145 -170 189 -256 l26 -53 964 0 c1062 0 996 4 996 -60 0 -63 55 -60 -1028 -60 -653 0 -990 3 -1002 10 -11 6 -35 45 -55 86 -42 93 -105 181 -179 254 -60 58 -70 88 -39 122 29 33 60 22 128 -43z" style="fill: rgb(47, 89, 211);"/>
    <path d="M2758 2540 l-47 -5 78 -215 78 -215 84 -22 c250 -67 562 -91 931 -74 204 10 245 14 255 28 10 13 10 19 0 31 -23 29 -209 143 -351 217 -226 118 -435 193 -646 231 -98 18 -313 31 -382 24z" style="fill: rgb(47, 89, 211);"/>
    <path d="M2475 2509 c-263 -56 -532 -180 -775 -354 -91 -66 -107 -86 -85 -105 12 -10 39 -7 132 13 302 66 440 86 635 94 104 4 188 2 248 -6 50 -7 93 -11 94 -9 7 8 -139 388 -149 387 -5 0 -50 -9 -100 -20z" style="fill: rgb(47, 89, 211);"/>
    <path d="M5488 1863 c-45 -100 -33 -197 30 -241 47 -34 234 -74 262 -57 13 8 -24 107 -65 170 -17 28 -50 67 -73 87 -40 36 -115 88 -127 88 -4 0 -16 -21 -27 -47z" style="fill: rgb(47, 89, 211);"/>
    <path d="M580 1866 c-58 -17 -111 -35 -117 -39 -9 -6 -13 -39 -13 -108 0 -99 0 -100 23 -93 41 12 96 44 131 75 34 29 106 156 106 185 0 19 -8 17 -130 -20z" style="fill: rgb(47, 89, 211);"/>
    <path d="M1220 1363 c-14 -3 -57 -20 -95 -38 -90 -43 -173 -128 -218 -222 -30 -65 -32 -74 -32 -188 0 -114 2 -123 32 -188 61 -127 184 -229 314 -257 77 -17 200 -8 272 20 108 41 216 149 259 260 29 77 36 208 13 286 -58 202 -237 336 -443 333 -43 -1 -88 -4 -102 -6z m226 -172 c192 -85 240 -337 92 -488 -60 -61 -126 -88 -218 -87 -61 0 -85 5 -125 26 -64 33 -109 79 -143 143 -22 42 -26 63 -26 130 0 67 4 88 26 130 79 151 244 212 394 146z" style="fill: rgb(47, 89, 211);"/>
    <path d="M1264 1089 c-40 -11 -100 -73 -115 -117 -34 -104 38 -220 147 -238 79 -12 161 34 195 111 23 51 23 89 0 140 -42 91 -131 132 -227 104z" style="fill: rgb(47, 89, 211);"/>
    <path d="M4817 1360 c-73 -19 -150 -63 -207 -120 -245 -245 -149 -649 181 -760 53 -18 81 -21 159 -18 85 3 104 8 173 41 186 88 292 285 259 481 -26 154 -119 277 -259 343 -71 34 -86 38 -173 40 -52 1 -112 -2 -133 -7z m249 -176 c227 -115 217 -443 -15 -547 -72 -33 -180 -30 -253 6 -103 51 -160 138 -166 255 -13 236 224 392 434 286z" style="fill: rgb(47, 89, 211);"/>
    <path d="M4854 1081 c-23 -10 -54 -36 -70 -57 -26 -33 -29 -46 -29 -109 0 -63 3 -76 29 -109 33 -44 95 -76 146 -76 51 0 113 32 146 76 26 33 29 46 29 109 0 63 -3 76 -29 109 -53 70 -143 93 -222 57z" style="fill: rgb(47, 89, 211);"/>
  </g>
</svg>